<?xml version="1.0" encoding="utf-8"?>
<!-- Generator: Adobe Illustrator 24.1.3, SVG Export Plug-In . SVG Version: 6.00 Build 0)  -->
<svg version="1.1" id="Layer_1" xmlns="http://www.w3.org/2000/svg" xmlns:xlink="http://www.w3.org/1999/xlink" x="0px" y="0px"
	 viewBox="0 0 343.4 455.9" style="enable-background:new 0 0 343.4 455.9;" xml:space="preserve">
<style type="text/css">
	.st0{fill:none;}
	.st1{fill:#2B2523;}
</style>
<path d="M223.4,200.9c1.4,0,1,1.2,1,1.9c0,42,0,84.1,0,126.1c0,2.3,0.6,2.8,3.5,2.8c13.4-0.1,23.5-4.7,29.7-14.1
	c2.3-3.5,3.2-7.3,3.2-11.2c0-34.2,0-68.5,0-102.7c0-4.5,0.1-8.9,0-13.4c-0.6-17.3-10.1-30.7-28.2-40.2c-9.5-5-20.1-7.5-31.5-7.5
	c-19.2-0.1-38.5-0.4-57.6,0.1c-24.4,0.6-42.2,10.1-53.3,27.3c-4.4,6.7-6.1,14-6.1,21.5c0,20.1,0.1,40.1,0.1,60.2
	c0,18.2,0,36.5,0,54.7c0,5.7,1.8,11,6.1,15.7c6.9,7.4,16.3,10.5,27.8,10.1c1.4-0.1,2.1-0.6,2.2-1.7c0.1-0.5,0.1-1,0.1-1.5
	c0-26,0-51.9,0-77.9c0-16.1,0-32.3,0-48.4c0-0.2-0.1-0.5,0-0.6c0.3-0.4,0.8-0.7,1.1-1.1c0.4,0.4,0.9,0.7,1.1,1.1
	c0.2,0.3,0,0.7,0,1.1c0,46.8,0,93.6,0,140.3c0,32.5,0.1,65.1,0.1,97.6c0,1.9-0.1,3.7,0.2,5.6c0.7,4.5,3.9,7.4,9.2,8.9
	c0.5,0.1,1,0.3,1.4,0.4c11,0,22.1,0,33.1,0c2.3-0.9,3.2-2.4,3.1-4.4c0-34.5,0-68.9,0-103.4c0-0.5,0-1,0-1.5c0.1-1,1.2-1.9,2.5-1.9
	c1.4,0,2.3,0.5,2.6,1.6c0.2,0.5,0.2,1,0.2,1.5c0,34.5,0,68.9,0,103.4c0,2.1,0.6,3.7,2.9,4.8c11.1,0,22.3,0,33.4,0
	c1.7-0.6,3.5-1.1,5-1.9c3.8-2.1,5.7-5.1,5.7-8.9c0-17.6,0-35.3,0-52.9c0-15.4,0-30.9,0-46.3c0.1-47.7,0.2-95.4,0.3-143.2
	C222.4,202,221.9,200.8,223.4,200.9z M216.5,196.4c-1.7,1.7-2.4,4-2.1,6.6c-0.1,47.6-0.2,95.2-0.3,142.9c0,10.5,0,21.1,0,31.6
	l0,31.7c0,12,0,23.9,0,35.9c0,1.1-0.3,1.9-1.9,2.8c-0.3,0.2-1.2,0.5-1.9,0.7c-0.1,0-0.2,0.1-0.3,0.1h-26.8c0-29.4,0-59.3,0-88.2
	l0-12.9c0-0.8,0-2.1-0.5-3.6c-1.4-4-5.4-6.6-10.2-6.6l-0.3,0c-5.2,0.1-9.6,3.7-10.2,8.2c-0.1,0.8-0.1,1.6-0.1,2l0,0.3l0,19.4
	c0,27.1,0,54.2,0,81.3h-27c-0.1,0-0.2-0.1-0.3-0.1c-3.4-1-3.6-2.2-3.7-3.1c-0.1-0.9-0.1-2.1-0.1-3.3c0-0.4,0-0.9,0-1.3l0-19.5
	c0-26-0.1-52-0.1-78.1c0-32.5,0-65,0-97.5l0-42.6c0.1-0.9,0.2-2.7-1-4.7c-0.8-1.4-1.9-2.2-2.4-2.7l-0.1-0.1
	c-1.5-1.4-3.5-2.1-5.7-2.1c0,0-0.1,0-0.1,0c-2.2,0-4.2,0.9-5.7,2.3l-0.2,0.2c-0.4,0.3-0.9,0.9-1.5,1.5c-0.9,1-1.8,2.8-1.6,5.2
	l0,14.9c0,11.1,0,22.1,0,33.2l0,73.8c-6.6-0.6-11.9-3.1-16-7.4c-2.9-3.1-4.3-6.6-4.2-11c0.1-19,0.1-38.2,0-54.8
	c0-12.2,0-24.5,0-36.7c0-7.8,0-15.6,0-23.5c0-6.9,1.6-12.7,5-17.9c10-15.4,25.3-23.2,46.7-23.8c7-0.2,14.3-0.3,23.3-0.3
	c6.8,0,13.6,0,20.3,0.1c4.6,0,9.2,0.1,13.8,0.1c10,0,19.3,2.2,27.5,6.6c15.8,8.3,23.8,19.5,24.3,34.3c0.1,2.9,0.1,5.7,0,8.7
	c0,1.5,0,3,0,4.5l0,18.3c0,28.1,0,56.3,0,84.4c0,3.1-0.6,5.5-2,7.6c-4.1,6.1-10,9.5-18.3,10.4c0-40.4,0-80.9,0-121.3
	c0.1-1.1,0.3-4-2.2-6.5c-1.6-1.6-4-2.6-6.5-2.7c-0.1,0-0.3,0-0.4,0C220.6,193.7,218.2,194.7,216.5,196.4z"/>
<path d="M121.5,331.3c-0.9,1-2,1.7-3.5,1.6c-2.2,0-4.5,0-6.7-0.2c-15.8-1.4-28.2-12.4-28.3-25c-0.1-39.3,0-78.5,0-117.8
	c0-2.1,0.2-4.1,0.6-6.2c2.3-12.7,9.9-23.1,22.3-31.3c1-0.7,2.1-1.3,3.4-2.2c-0.7,0-1,0-1.4,0c-16.2,0-32.4-0.1-48.6,0
	c-3.9,0-7.8,0.2-11.6,0.8c-22.6,3.3-40.7,17.5-45.1,35.3c-0.5,2.2-0.8,4.4-1.3,6.6c0,37.4,0,74.8,0,112.2c0.1,0.6,0.3,1.3,0.4,1.9
	c2.6,12,14.3,19.9,29.6,19.8c3.4,0,3.8-0.3,3.8-3c0-39.1,0-78.1,0-117.2c0-0.5,0-1,0.2-1.5c0.1-0.3,0.7-0.7,0.9-0.6
	c0.4,0.1,0.8,0.4,1,0.7c0.2,0.3,0.1,0.6,0.1,1c0.1,44.6,0.2,89.2,0.2,133.8c0,13.9,0,27.8,0,41.7c0,16.8,0,33.5,0,50.3
	c0,5.5,5.1,9.9,11.8,10c9.2,0.1,18.4,0,27.7,0c1.6,0,2.9-0.5,3.6-1.6c0.5-0.7,0.7-1.7,0.7-2.5c0-32.1,0-64.2,0-96.4
	c0-0.5,0-0.9,0-1.4c0.2-1.1,0.9-1.8,2.3-1.8c1.3,0,2.2,0.5,2.4,1.6c0.1,0.4,0.1,0.8,0.1,1.2c0,7.7,0,15.4,0,23c0,24.6,0,49.1,0,73.7
	c0,3,1.4,4.1,5.2,4.1c3.4,0,6.9,0,10.3,0c5.6,0,11.2,0,16.9-0.1c3,0,3-0.2,3-2.5c-0.1-33.8-0.2-67.7-0.2-101.5
	C121.5,335.9,121.5,333.6,121.5,331.3z M109.2,435.1l-14.8,0l0-74.8c0-6.3,0-12.6,0-18.9c0-0.8,0-1.7-0.3-2.8
	c-1.1-4.2-5.2-7.1-10.1-7.1c-0.2,0-0.3,0-0.5,0c-5.2,0.2-9.2,3.3-9.9,7.9c-0.2,0.9-0.1,1.7-0.1,2.2l0,0.2l0,13.7c0,26.5,0,53,0,79.5
	c-1.6,0-3.1,0-4.7,0c-2.4,0-4.7,0-7.1,0c-4.7,0-8.5,0-12-0.1c-2.2,0-3.9-1.3-3.9-2.9c0-11.5,0-22.9,0-34.4l0-29.1
	c0-9.5,0-19.1,0-28.6c-0.1-33.5-0.1-67-0.2-100.5l-0.1-33c0.1-0.8,0.2-2.8-1.2-4.8c-1.4-2.2-3.9-3.7-6.6-4.1
	c-0.5-0.1-0.9-0.1-1.4-0.1c-3.6,0-7.1,2.2-8.4,5.3c-0.7,1.6-0.7,3-0.6,3.8l0,0.1c0,37.6,0,75.1,0,112.7c-9.2-1.2-15.9-6.3-17.6-13.8
	l-0.3-1.2v-111c0.1-0.5,0.2-1.1,0.3-1.6c0.2-1.4,0.5-2.8,0.8-4c3.7-15,19.2-26.9,38.5-29.7c3.1-0.4,6.5-0.7,10.4-0.7
	c7.5,0,15-0.1,22.5-0.1c2.2,0,4.4,0,6.6,0c-6.7,7.3-11,15.8-12.7,25.2c-0.5,2.6-0.7,5-0.7,7.3c0,39.6-0.1,78.4,0,117.8
	c0,16.2,15.6,30.2,35.4,32.1c1,0.1,2.1,0.1,3.1,0.2l0.2,95.1C112.2,435.1,110.7,435.1,109.2,435.1z"/>
<path d="M343.1,190.5c-1.4-10.1-6.5-18.9-15.4-26.2c-10.8-8.9-24-13.7-39.6-13.9c-17.2-0.2-34.4-0.1-51.6-0.1c-0.2,0-0.5,0-1,0.1
	c0.5,0.3,0.8,0.5,1,0.6c16.7,10.2,25.2,23.6,25.4,40.3c0.1,7.7,0,15.4,0,23.2c0,30.7,0,61.4,0,92c0,4.7-1.4,9.1-4.5,13.1
	c-5.9,7.6-14.5,11.9-25.7,12.8c-2.8,0.2-5.9,1-8.4-1.4c0,0.5-0.1,0.8-0.1,1.2c0,5.2-0.1,10.4-0.1,15.6c0,30.4,0,60.8,0,91.2
	c0,3.3,0,3.4,4.3,3.4c8.6,0,17.3,0,25.9,0c3.8,0,5.2-1.1,5.2-4.1c0-32.1,0-64.2,0-96.4c0-0.4,0-0.7,0-1.1c0.1-1.2,1.1-2,2.4-2
	c1.3,0,2.4,0.8,2.5,2c0.1,0.5,0,1.1,0,1.6c0,32,0,64,0,96c0,2.9,1.4,4,5.1,4c8.6,0,17.3,0,25.9,0c7.5,0,12.8-4.3,12.8-10.3
	c0-31.4,0.1-62.8,0.1-94.3c0-43.7,0-87.4,0-131c0-0.7-0.3-1.9,1-1.9c1.4,0,1,1.1,1,1.9c0,39,0,78,0,117c0,0.2,0,0.5,0,0.7
	c0,1.5,0.7,2.1,2.6,2.1c1.8,0,3.7,0,5.4-0.2c12.2-1.5,20.4-6.9,24.5-16.2c0.6-1.3,0.8-2.6,1.3-3.9c0-38.4,0-76.8,0-115.2
	C343.3,190.8,343.1,190.6,343.1,190.5z M335.3,305.3c0,0.1-0.1,0.3-0.1,0.4c-0.2,0.7-0.4,1.4-0.6,1.8c-2.9,6.6-8.3,10.3-17.1,11.6
	v-12.2c0-33.3,0-66.7,0-100c0.1-1.2,0.3-4.1-2.3-6.6c-1.7-1.6-4.1-2.5-6.7-2.5c-2.7,0-5,0.9-6.7,2.5c-2.7,2.5-2.4,5.6-2.4,6.6l0,0
	c0,22.3,0,44.5,0,66.8c0,21.4,0,42.8,0,64.2c0,20.1,0,40.3,0,60.4l0,33.9c0,2.8-3.4,3.2-4.8,3.2c-4.4,0-8.7,0-13.1,0
	c-3.3,0-6.6,0-9.8,0l0-92.9l0-0.3c0-0.5,0-1.1-0.1-1.9c-0.5-4.9-4.9-8.5-10.4-8.5c0,0-0.1,0-0.1,0c-5.4,0.1-9.9,3.8-10.3,8.6
	c-0.1,0.6,0,1.1,0,1.5l0,93.5c-2.8,0-5.6,0-8.4,0c-3.7,0-7.3,0-11,0l0-20.2c0-22.4,0-44.8,0-67.1c0-2.7,0-5.4,0-8.1
	c0.1,0,0.2,0,0.3,0c0.3,0,0.7-0.1,1-0.1c13.5-1.1,24.4-6.5,31.5-15.9c3.9-5.1,5.9-10.8,5.9-17.1c0-20.7,0-41.4,0-62.1v-29.9
	c0-2.6,0-5.3,0-7.9c0-5,0-10.2,0-15.3c-0.1-12.9-4.7-24.3-13.5-33.8c3.4,0,6.7,0,10.1,0c8.3,0,15.1,0,21.4,0.1
	c13.3,0.2,24.8,4.2,34.2,12c7.5,6.2,11.7,13.3,12.9,21.8c0,0.3,0.1,0.7,0.2,1V305.3z"/>
<path class="st0" d="M72.4,56c-0.4,0.2-0.7,0.5-0.8,0.9c0.9-0.3,1.8-0.5,2.7-0.7C73.7,55.8,73,55.7,72.4,56z"/>
<path class="st0" d="M45.6,69.8c-0.6,0.3-0.8,1.2-0.3,2.1c0.4,0.9,1.3,1.3,1.9,1c0.6-0.3,0.8-1.2,0.3-2.1
	C47,69.9,46.2,69.5,45.6,69.8z"/>
<path class="st0" d="M87.2,53.8c0.6-0.3,0.8-1.2,0.3-2.1c-0.4-0.9-1.3-1.3-1.9-1c-0.6,0.3-0.8,1.2-0.3,2.1
	C85.7,53.6,86.6,54.1,87.2,53.8z"/>
<path class="st0" d="M262,51.3c-1.5-0.5-3.2,0.4-3.8,2.1c-0.2,0.6-0.3,1.2-0.2,1.8c0.9-0.1,1.9-0.1,2.8-0.1c0,0,0,0,0,0
	c-0.7-0.4-1.4-0.9-2.1-1.3c0.5-1.3,1.7-2,2.8-1.6c1.1,0.4,1.5,1.7,1.1,3c0.3,0,0.6,0,0.9,0C264.1,53.5,263.4,51.8,262,51.3z"/>
<path class="st0" d="M277.2,56.6c-1.1-0.4-2.2-0.2-3.1,0.5c0.3,0.1,0.7,0.2,1,0.3c0.5-0.2,1.1-0.2,1.7,0c0.6,0.2,1.1,0.7,1.4,1.2
	c0.4,0.2,0.7,0.3,1.1,0.5C279.1,58,278.3,57,277.2,56.6z"/>
<path class="st0" d="M284,60.8c-0.5-0.2-1-0.1-1.4,0.1c0.9,0.5,1.8,1.1,2.7,1.7C285.3,61.8,284.8,61.1,284,60.8z"/>
<path class="st0" d="M269.9,55.4c-0.6-0.2-1.2-0.1-1.7,0.2c0.9,0.1,1.7,0.3,2.6,0.5C270.6,55.9,270.3,55.6,269.9,55.4z"/>
<path class="st0" d="M82.5,53.2c-0.8-1.6-2.6-2.4-4-1.7c-1.4,0.7-1.9,2.5-1.2,4.1c0.2,0,0.5-0.1,0.7-0.1c-0.6-1.2-0.3-2.6,0.8-3.2
	c1-0.5,2.2,0,2.8,1.1c-0.7,0.6-1.5,1.3-2.3,1.9c1.2-0.1,2.3-0.2,3.5-0.2C82.9,54.5,82.8,53.8,82.5,53.2z"/>
<path class="st0" d="M50.2,65.3c-1.4,0.7-1.9,2.6-1.1,4.2c0.3,0.7,0.8,1.2,1.4,1.5c0.7-0.9,1.4-1.7,2.2-2.5c-1,0.3-2,0.5-2.9,0.7
	c-0.6-1.2-0.2-2.6,0.8-3.1c1-0.5,2.4,0.1,3,1.3c0,0.1,0,0.1,0.1,0.2c0.2-0.2,0.4-0.4,0.6-0.6c0,0,0,0,0,0
	C53.4,65.3,51.6,64.6,50.2,65.3z"/>
<path class="st0" d="M58.7,62.4c-0.6,0.3-1,0.9-1,1.6c0.8-0.6,1.6-1.2,2.4-1.7C59.6,62.2,59.1,62.2,58.7,62.4z"/>
<path class="st0" d="M64.6,58c-1,0.5-1.7,1.5-1.8,2.6c0.3-0.2,0.6-0.4,1-0.5c0.2-0.5,0.6-1,1.2-1.2c0.6-0.3,1.2-0.3,1.7-0.2
	c0.4-0.2,0.8-0.3,1.1-0.5C66.8,57.6,65.6,57.5,64.6,58z"/>
<path class="st0" d="M255.5,51.1c-0.6-0.2-1.4,0.3-1.7,1.2c-0.3,0.9-0.1,1.8,0.6,2c0.6,0.2,1.4-0.3,1.7-1.2
	C256.4,52.3,256.1,51.4,255.5,51.1z"/>
<path class="st0" d="M295.9,69.9c0.6,0.2,1.4-0.3,1.7-1.2c0.3-0.9,0.1-1.8-0.6-2c-0.6-0.2-1.4,0.3-1.7,1.2
	C295,68.7,295.3,69.7,295.9,69.9z"/>
<path class="st0" d="M293.1,66.1c0.6-1.7-0.1-3.5-1.6-4c-1.5-0.5-3.2,0.4-3.8,2.1c0,0.1,0,0.1-0.1,0.2c0.2,0.2,0.4,0.3,0.6,0.5
	c0-0.1,0-0.2,0.1-0.3c0.5-1.3,1.7-2,2.8-1.6c1,0.4,1.5,1.6,1.2,2.8c-1.2-0.1-2.4-0.3-3.6-0.5c1,0.9,2,1.7,2.9,2.7
	C292.3,67.5,292.8,66.9,293.1,66.1z"/>
<path d="M71.5,58.6c0.5,0.9,1.6,1.3,2.5,0.9c0.9-0.5,1.3-1.6,0.9-2.5c-0.2-0.3-0.4-0.5-0.7-0.7c-0.9,0.2-1.8,0.4-2.7,0.7
	C71.3,57.4,71.2,58,71.5,58.6z M72.7,56.8c0.6-0.3,1.2,0,1.5,0.5c0.3,0.6,0,1.2-0.5,1.5c-0.6,0.3-1.2,0-1.5-0.5
	C71.9,57.8,72.2,57.1,72.7,56.8z"/>
<path d="M78.4,56c-0.1-0.2-0.3-0.3-0.3-0.5c0,0,0,0,0,0c-0.2,0-0.5,0.1-0.7,0.1c0,0,0,0.1,0,0.1c0.8,1.6,2.6,2.4,4,1.7
	c0.9-0.4,1.4-1.3,1.5-2.3c-1.2,0-2.3,0.1-3.5,0.2C79,55.5,78.7,55.8,78.4,56z"/>
<path d="M57.8,65c0.5,0.9,1.6,1.3,2.5,0.9c0.9-0.5,1.3-1.6,0.9-2.5c-0.3-0.5-0.7-0.8-1.2-1c-0.8,0.5-1.6,1.1-2.4,1.7
	C57.6,64.3,57.7,64.7,57.8,65z M59,63.3c0.6-0.3,1.2,0,1.5,0.5c0.3,0.6,0,1.2-0.5,1.5c-0.6,0.3-1.2,0-1.5-0.5
	C58.2,64.2,58.5,63.5,59,63.3z"/>
<path d="M95.1,56.6c0.1,0.2,0.2,0.4,0.3,0.6c-0.9-1.9-12.6,3.3-20.5,7.2c1.5-0.4,3.1-0.7,4.7-0.9c8.7-3.9,14.9-6.3,15.3-5.6
	c0.2,0.5-2.8,2.6-7.8,5.4c17.8,1.6,31.8,16.8,31.8,35.3c0,9.1-3.6,17.8-10.2,24.3C102,129.4,93.2,133,83.9,133l-0.5,0
	c-18.8,0-34.3-15.5-34.5-34.5c-0.1-7,1.9-13.6,5.5-19.3c-5.6,2.3-9.3,3.6-9.5,3c-0.3-0.7,5.5-4.3,14.2-8.9c1.1-1.2,2.4-2.2,3.6-3.1
	c-6.4,3.1-15.6,7.9-18.2,10.7c-2.3,5.4-3.6,11.4-3.6,17.7c0.2,24.3,20.5,42.7,43,42.4c23.6,0,43-19.2,42.9-42.5
	C126.9,78.4,113.4,61.5,95.1,56.6z"/>
<path d="M53.8,68.2c-0.4,0.1-0.7,0.2-1.1,0.3c-0.8,0.8-1.5,1.6-2.2,2.5c0.8,0.5,1.8,0.6,2.6,0.2c1.4-0.7,1.9-2.5,1.1-4.2
	c-0.2,0.2-0.4,0.4-0.6,0.6C53.7,67.8,53.8,68,53.8,68.2z"/>
<path d="M68.3,60c0.4,0.8,0.3,1.6-0.1,2.3c-0.6,0.3-1.2,0.6-1.8,0.9c-0.2,0.1-0.5,0.2-0.7,0.3c-0.8-0.1-1.5-0.6-1.9-1.4
	c-0.3-0.7-0.3-1.4,0-2.1c-0.3,0.2-0.6,0.3-1,0.5c-0.1,0.6,0,1.2,0.3,1.8c0.8,1.6,2.7,2.3,4.4,1.5c1.6-0.8,2.3-2.7,1.5-4.4
	c-0.3-0.6-0.7-1-1.2-1.3c-0.4,0.2-0.8,0.3-1.1,0.5C67.3,58.9,67.9,59.3,68.3,60z"/>
<path d="M288.7,65.2c-0.2,0-0.3,0-0.5-0.1c0-0.1,0-0.2,0.1-0.3c-0.2-0.2-0.4-0.3-0.6-0.5c-0.5,1.6,0.2,3.3,1.6,3.8
	c0.8,0.3,1.6,0.1,2.3-0.3C290.7,67,289.7,66.1,288.7,65.2z"/>
<path d="M281.6,61.9c-0.4,1,0.2,2.1,1.1,2.4c1,0.4,2.1-0.2,2.4-1.1c0.1-0.2,0.1-0.4,0.1-0.7c-0.9-0.6-1.8-1.2-2.7-1.7
	C282.1,61.1,281.8,61.4,281.6,61.9z M284.3,63.1c-0.2,0.6-0.9,0.9-1.4,0.7c-0.6-0.2-0.9-0.9-0.7-1.4c0.2-0.6,0.9-0.9,1.4-0.7
	C284.3,61.8,284.6,62.5,284.3,63.1z"/>
<path d="M278.3,60.6c-0.3,0.8-1,1.4-1.7,1.6c-0.6-0.2-1.3-0.4-1.9-0.7c-0.2-0.1-0.5-0.2-0.7-0.3c-0.5-0.6-0.6-1.5-0.4-2.3
	c0.3-0.7,0.8-1.2,1.5-1.5c-0.3-0.1-0.7-0.2-1-0.3c-0.5,0.4-0.9,0.9-1.1,1.5c-0.6,1.7,0.3,3.6,2,4.2c1.7,0.6,3.6-0.3,4.2-2
	c0.2-0.6,0.2-1.1,0.1-1.7c-0.4-0.2-0.7-0.3-1.1-0.5C278.5,59.2,278.5,59.9,278.3,60.6z"/>
<path d="M279,68.1c1.4,0.8,2.6,1.7,3.9,2.7c9.4,3.7,15.8,6.7,15.5,7.4c-0.2,0.6-4.1-0.3-10.1-2.1c4.8,6,7.8,13.6,7.8,21.9
	c0.1,19.5-15.3,34.9-35,35l-0.2,0c-19,0-34.6-15.7-34.7-35.1c-0.1-9.1,3.5-17.8,10.1-24.5c5-5,11.2-8.4,17.9-9.7
	c-5.1-2.2-8.3-3.9-8.1-4.4c0.3-0.7,6.5,0.9,15.4,3.7c1.6,0,3.3,0.2,4.8,0.4c-8.2-2.9-20.4-6.8-21.1-4.8c0.1-0.2,0.1-0.4,0.2-0.6
	c-16,6.4-27.4,22-27.3,39.9c0.2,23.9,19.5,43.2,43,43c24-0.1,43.1-19.2,43-43.1c0-7.8-2.2-15.1-5.8-21.5
	C295.1,74.1,285.5,70.4,279,68.1z"/>
<path d="M262.7,55.2c-0.1,0.3-0.2,0.5-0.4,0.7c-0.5-0.3-1-0.6-1.4-0.9c0,0,0,0,0,0c-1,0-1.9,0.1-2.8,0.1c0.2,1,0.8,1.9,1.8,2.3
	c1.5,0.5,3.2-0.4,3.8-2.1c0-0.1,0-0.1,0.1-0.2C263.3,55.1,263,55.1,262.7,55.2C262.7,55.1,262.7,55.2,262.7,55.2z"/>
<path d="M267.4,56.6c-0.4,1,0.2,2.1,1.1,2.4c1,0.4,2.1-0.2,2.4-1.1c0.2-0.6,0.1-1.2-0.2-1.7c-0.9-0.2-1.7-0.4-2.6-0.5
	C267.9,55.9,267.6,56.2,267.4,56.6z M269.5,56.2c0.6,0.2,0.9,0.9,0.7,1.4c-0.2,0.6-0.9,0.9-1.4,0.7c-0.6-0.2-0.9-0.9-0.7-1.4
	C268.3,56.3,268.9,56,269.5,56.2z"/>
<path class="st0" d="M172.9,37.8c0.7,0,1.4,0,2.1,0c-0.3-0.1-0.7-0.2-1-0.2C173.6,37.7,173.2,37.7,172.9,37.8z"/>
<path class="st0" d="M199.9,45c0.8,0,1.4-0.9,1.5-2c0-1.1-0.6-2-1.4-2c-0.8,0-1.4,0.9-1.5,2S199.1,45,199.9,45z"/>
<path class="st0" d="M147.9,44.1c0.8,0,1.4-0.9,1.5-2s-0.6-2-1.4-2c-0.8,0-1.4,0.9-1.5,2S147.1,44.1,147.9,44.1z"/>
<path class="st0" d="M155.1,37.8c-1.8,0-3.4,1.7-3.4,3.8c0,0.4,0.1,0.8,0.2,1.1c0.5-0.3,1.1-0.6,1.6-0.8c-0.3-0.1-0.6-0.1-0.9-0.2
	c0-1.6,1.1-2.9,2.5-2.9c1,0,1.8,0.7,2.2,1.6c0.3-0.1,0.7-0.2,1-0.3C157.7,38.8,156.5,37.8,155.1,37.8z"/>
<path class="st0" d="M192,38.1c-1.6,0-2.9,1.2-3.2,2.9c0.3,0.1,0.6,0.2,0.8,0.3c0.3-1.2,1.2-2.1,2.4-2.1c1.3,0,2.3,1.2,2.4,2.6
	c-0.8,0.2-1.6,0.4-2.4,0.6c1,0.5,2,1,2.9,1.5c0.3-0.6,0.5-1.2,0.5-1.9C195.3,39.8,193.8,38.1,192,38.1z"/>
<path d="M165.4,43.7c1.2,0,2.2-1,2.2-2.2s-1-2.2-2.2-2.2c-1.2,0-2.2,1-2.2,2.2C163.2,42.7,164.2,43.7,165.4,43.7z M165.4,40.3
	c0.7,0,1.3,0.6,1.3,1.3c0,0.7-0.6,1.3-1.3,1.3c-0.7,0-1.3-0.6-1.3-1.3S164.6,40.3,165.4,40.3z"/>
<path d="M218.3,77.9c-1.5-10.3-6.3-19.5-13.2-26.4c-3.1-1-9.6-1.5-16-1.7c1,0.5,1.9,1,2.9,1.5c8.4,0.4,14,1.1,14,1.9
	c0,0.6-3.5,1.1-9.1,1.5c7.2,6,12.2,14.5,13.6,24.3c2.8,19.4-11.2,38.9-30.6,42.6c-2.3,0.4-4.7,0.7-7.1,0.7
	c-18.3,0-34.1-12.8-37.4-30.5c-2.9-15.2,1.5-27.4,13.5-37.3c-5-0.4-8-0.9-8-1.5c0-0.7,4.9-1.3,12.4-1.7c0.9-0.6,1.9-1.1,2.8-1.6
	c-8.4,0.3-16.5,1-16.5,2.8c0-0.1,0-0.3,0-0.4c-11,11.1-15.1,24.9-12,41.2c4.7,24.7,28.9,40.9,53.9,36.2
	C204.9,125,221.8,101.8,218.3,77.9z"/>
<path d="M157.5,41.8c0,0.3-0.1,0.7-0.1,0.9c-1.3-0.2-2.6-0.5-3.8-0.8c-0.5,0.2-1.1,0.5-1.6,0.8c0.4,1.6,1.7,2.7,3.2,2.7
	c1.8,0,3.4-1.7,3.4-3.8c0-0.5-0.1-1-0.3-1.5c-0.3,0.1-0.7,0.2-1,0.3C157.4,40.9,157.5,41.3,157.5,41.8z"/>
<path d="M170.1,41.5c0,2.1,1.7,3.8,3.8,3.8c2.1,0,3.8-1.7,3.8-3.8c0-1.8-1.2-3.2-2.8-3.7c-0.7,0-1.4,0-2.1,0
	C171.3,38.3,170.1,39.7,170.1,41.5z M176.8,41.6c0,1-0.5,1.9-1.3,2.4c-0.8,0-1.6,0-2.3,0c-0.3,0-0.6,0-0.9,0
	c-0.8-0.5-1.3-1.4-1.3-2.4c0-1.6,1.3-2.9,2.9-2.9C175.5,38.7,176.8,40,176.8,41.6z"/>
<path d="M189.5,42.8c-0.1-0.2-0.1-0.5-0.1-0.8c0-0.3,0-0.5,0.1-0.8c-0.3-0.1-0.5-0.2-0.8-0.3c-0.1,0.3-0.1,0.6-0.1,0.9
	c0,2.1,1.5,3.8,3.3,3.8c1.2,0,2.3-0.8,2.9-1.9c-0.9-0.5-1.9-1-2.9-1.5C191.1,42.5,190.3,42.6,189.5,42.8z"/>
<path d="M183.2,44.1c1.2,0,2.2-1,2.2-2.2c0-1.2-1-2.2-2.2-2.2c-1.2,0-2.2,1-2.2,2.2C180.9,43.1,181.9,44.1,183.2,44.1z M183.1,40.7
	c0.7,0,1.3,0.6,1.3,1.3c0,0.7-0.6,1.3-1.3,1.3s-1.3-0.6-1.3-1.3C181.8,41.2,182.4,40.7,183.1,40.7z"/>
<path class="st1" d="M155,38.8c-1.3,0-2.4,1.3-2.5,2.9c0.3,0.1,0.6,0.1,0.9,0.2c1.2-0.5,2.4-1,3.7-1.4C156.8,39.5,156,38.8,155,38.8
	z"/>
<path class="st1" d="M201.3,30.3c1.4,0,2.6-0.4,3.7-1.1c-2.1-1.9-5.6-3.5-10.2-4.7C195,27.7,197.9,30.3,201.3,30.3z"/>
<path class="st1" d="M129.6,11.1c1.4,3.2,3.7,8.2,7.3,15.3l0,0l2.9,10.2c5.6-3.3,28.7-3.1,33.5-3.1c4.7,0,27.5,0,33.3,3.3l3-10.1
	c3.7-7,6-12,7.4-15.2l0.4-2.5c0.1-0.9-0.2-1-0.8-0.3l-5.2,6.6c-0.4,0.4-0.7,1.1-1,1.8c0-0.5-0.2-0.9-0.3-1.2l-2.9-4.3
	c-0.3-0.5-0.7-0.2-0.8,0.6l-1.3,7.3c-0.1,0.8,0,1.8,0.3,2.2l2.2,3.4c-0.6-0.1-1.2,0.2-1.4,0.8c-0.2,0.7,0.1,1.4,0.8,1.6l0.8,0.3
	c-1.3,2-3.6,3.2-6.3,3.2c-4.1,0-7.4-3.1-7.4-7c0-0.5,0.1-0.9,0.2-1.4l0.4,0.1c0.8,0.1,1.6-0.4,1.7-1.2c0.1-0.7-0.3-1.5-1.1-1.7
	c1.3-0.5,2.4-1.7,2.6-3.2c0.3-2.2-1.2-4.3-3.4-4.7c-2.2-0.3-4.3,1.2-4.7,3.4c-0.2,1.5,0.4,3,1.5,3.9c-0.7,0-1.4,0.5-1.5,1.3
	c-0.1,0.8,0.4,1.6,1.2,1.7l0.4,0.1c-1.1,3.3-4.3,5.7-8.2,5.7c-4.7,0-8.5-3.6-8.5-8.1c0,0,0,0,0-0.1l0.3,0c0.8,0,1.5-0.7,1.5-1.5
	c0-0.6-0.4-1.1-0.9-1.4l5.4-2.1c0.7-0.3,1.4-1,1.7-1.7l2.5-6.3c0.3-0.7-0.1-1-0.7-0.7l-6.3,2.4c-0.3,0.1-0.7,0.4-1,0.7
	c0-0.6,0-1.2-0.2-1.6L174,0.6c-0.3-0.8-0.9-0.8-1.2,0l-3.1,7.1c-0.2,0.5-0.3,1.1-0.2,1.8c-0.3-0.4-0.7-0.7-1.1-0.8L162,6.1
	c-0.7-0.3-1,0.1-0.7,0.7l2.4,6.3c0.3,0.7,1,1.4,1.7,1.7l5.5,2.2c-0.5,0.2-0.8,0.7-0.8,1.3c0,0.8,0.7,1.5,1.5,1.5l0.3,0
	c0,0,0,0,0,0.1c0,4.4-3.9,8-8.6,8c-3.7,0-6.9-2.3-8.1-5.4l0.5-0.1c0.8-0.1,1.4-0.9,1.3-1.7c-0.1-0.8-0.8-1.3-1.5-1.3
	c1.1-0.9,1.8-2.3,1.6-3.8c-0.3-2.2-2.4-3.8-4.6-3.4c-2.2,0.3-3.8,2.4-3.4,4.6c0.2,1.5,1.3,2.7,2.6,3.2c-0.7,0.2-1.2,0.9-1.1,1.6
	c0.1,0.8,0.9,1.4,1.7,1.3l0.3,0c0.1,0.3,0.1,0.7,0.1,1c0,3.8-3.3,6.9-7.4,6.9c-2.6,0-4.8-1.3-6.1-3.1l1.2-0.4c0.7-0.2,1-1,0.8-1.6
	c-0.2-0.7-1-1-1.6-0.8l-0.7,0.3l2.5-3.8c0.3-0.5,0.5-1.5,0.3-2.2l-1.3-7.3c-0.1-0.8-0.5-1-0.8-0.6l-2.9,4.3
	c-0.2,0.3-0.3,0.7-0.3,1.2c-0.2-0.7-0.6-1.4-0.9-1.8L130,8.3c-0.6-0.7-0.9-0.6-0.8,0.3L129.6,11.1z"/>
<path class="st1" d="M151.5,24.3c-4.5,1.2-8.1,2.8-10.1,4.6c1.1,0.7,2.3,1.1,3.6,1.1C148.4,30.1,151.3,27.5,151.5,24.3z"/>
<path class="st1" d="M163.1,27.1c3.5,0,6.5-2.2,7.4-5.3c-5.1,0.1-9.9,0.6-14.2,1.4C157.7,25.6,160.3,27.1,163.1,27.1z"/>
<path class="st1" d="M194.3,41.7c-0.1-1.5-1.2-2.6-2.4-2.6c-1.1,0-2.1,0.9-2.4,2.1c0.8,0.3,1.6,0.7,2.4,1.1
	C192.7,42.1,193.5,41.9,194.3,41.7z"/>
<path class="st1" d="M183.2,27.2c2.9,0,5.5-1.5,6.8-3.9c-4.2-0.8-9-1.3-14.2-1.5C176.7,24.9,179.7,27.2,183.2,27.2z"/>
<path class="st1" d="M151.9,42.7c-0.1-0.4-0.2-0.7-0.2-1.1c0-2.1,1.5-3.8,3.4-3.8c1.4,0,2.6,1,3.1,2.4c3.5-1.1,7.1-1.8,10.9-2.1
	c0.3,0,0.6-0.2,0.9-0.3c1,0,2,0,3,0c0.3-0.1,0.7-0.2,1.1-0.2c0.4,0,0.7,0.1,1,0.2c0.1,0,0.2,0,0.2,0c2.5,0.4,5,0.7,7.5,1.3
	c2.1,0.5,4.1,1.1,6,1.9c0.4-1.7,1.7-2.9,3.2-2.9c1.8,0,3.3,1.7,3.3,3.8c0,0.7-0.2,1.3-0.5,1.9c3.8,2.1,7.2,4.7,10.2,7.7
	c1.1,0.4,1.8,0.8,1.8,1.3c0-1.7,0-3.3,0-4.9c-1.3-0.2-2.4-1.8-2.3-3.8c0-2.1,1.1-3.8,2.5-3.8c0-0.1,0-0.2,0-0.2
	c0-4.9-28.5-4.9-33.8-4.8c-5.3-0.1-33.9-0.3-33.9,4.5c0,0,0,0.2,0,0.6c0.2-0.1,0.4-0.1,0.6-0.1c1.4,0,2.5,1.7,2.5,3.8
	c0,2.1-1.2,3.8-2.6,3.8c-0.2,0-0.4,0-0.5-0.1c0,1.4,0,2.8,0,4.2c1.7-1.7,3.5-3.3,5.5-4.9C147.1,45.4,149.5,44,151.9,42.7z M199.9,41
	c0.8,0,1.4,0.9,1.4,2c0,1.1-0.7,2-1.5,2c-0.8,0-1.4-0.9-1.4-2S199.1,41,199.9,41z M147.9,40.1c0.8,0,1.4,0.9,1.4,2s-0.7,2-1.5,2
	c-0.8,0-1.4-0.9-1.4-2S147.1,40.1,147.9,40.1z"/>
<path class="st1" d="M205.9,53.2c0-0.8-5.5-1.4-14-1.9c1.7,1,3.3,2.1,4.8,3.4C202.4,54.3,205.9,53.8,205.9,53.2z"/>
<path class="st1" d="M155.9,49.7c4.1-2,8.7-3.2,13.7-3.6c0.6,0,1.1-0.1,1.5-0.2h3.4c0.6,0.1,1.2,0.2,1.8,0.3
	c1.6,0.2,3.1,0.5,4.5,0.8c2.9,0.7,5.6,1.6,8.1,2.9c6.4,0.2,13,0.7,16,1.7c-3-3-6.4-5.6-10.2-7.7c-0.6,1.2-1.7,1.9-2.9,1.9
	c-1.8,0-3.3-1.7-3.3-3.8c0-0.3,0-0.6,0.1-0.9c-1.9-0.7-3.9-1.4-6-1.9c-2.5-0.6-5-0.9-7.5-1.3c-0.1,0-0.2,0-0.2,0
	c1.6,0.5,2.8,1.9,2.8,3.7c0,2.1-1.7,3.8-3.8,3.8c-2.1,0-3.8-1.7-3.8-3.8c0-1.7,1.2-3.2,2.8-3.6c-1,0-2,0-3,0
	c-0.3,0.1-0.6,0.2-0.9,0.3c-3.8,0.3-7.4,1-10.9,2.1c0.2,0.5,0.3,1,0.3,1.5c0,2.1-1.5,3.8-3.4,3.8c-1.5,0-2.8-1.2-3.2-2.7
	c-2.4,1.2-4.8,2.7-7,4.4c-2,1.6-3.8,3.2-5.5,4.9c0,0.1,0,0.3,0,0.4C139.4,50.6,147.5,49.9,155.9,49.7z M183.2,39.6
	c1.2,0,2.2,1,2.2,2.2c0,1.2-1,2.2-2.2,2.2c-1.2,0-2.2-1-2.2-2.2C181,40.6,182,39.6,183.2,39.6z M165.4,39.2c1.2,0,2.2,1,2.2,2.2
	s-1,2.2-2.2,2.2c-1.2,0-2.2-1-2.2-2.2C163.2,40.2,164.2,39.2,165.4,39.2z"/>
<path class="st1" d="M153.1,51.2c-7.6,0.4-12.4,1-12.4,1.7c0,0.6,3,1.1,8,1.5c0.4-0.3,0.8-0.7,1.2-1C150.9,52.6,152,51.9,153.1,51.2
	z"/>
<path class="st1" d="M183.1,43.3c0.7,0,1.3-0.6,1.3-1.3c0-0.7-0.6-1.3-1.3-1.3c-0.7,0-1.3,0.6-1.3,1.3
	C181.8,42.7,182.4,43.3,183.1,43.3z"/>
<path class="st1" d="M189.5,42.8c0.8-0.1,1.6-0.3,2.4-0.5c-0.8-0.4-1.6-0.7-2.4-1.1c-0.1,0.2-0.1,0.5-0.1,0.8
	C189.4,42.3,189.5,42.5,189.5,42.8z"/>
<path class="st1" d="M165.4,42.9c0.7,0,1.3-0.6,1.3-1.3c0-0.7-0.6-1.3-1.3-1.3c-0.7,0-1.3,0.6-1.3,1.3S164.6,42.9,165.4,42.9z"/>
<path class="st1" d="M170.9,41.6c0,1,0.5,1.9,1.3,2.4c0.3,0,0.6,0,0.9,0c0.8,0,1.6,0,2.3,0c0.8-0.5,1.3-1.4,1.3-2.4
	c0-1.6-1.3-2.9-2.9-2.9C172.3,38.7,171,40,170.9,41.6z"/>
<path class="st1" d="M157.5,41.8c0-0.5-0.1-0.9-0.3-1.3c-1.2,0.4-2.5,0.9-3.7,1.4c1.2,0.3,2.5,0.6,3.8,0.8
	C157.4,42.4,157.5,42.1,157.5,41.8z"/>
<path class="st1" d="M39.6,63.2c2.7-1.3,3.9-4.3,2.8-6.8c-3,2.6-5.1,5.2-6,7.4C37.4,63.9,38.5,63.7,39.6,63.2z"/>
<path class="st1" d="M52.3,54.1c2.7-1.3,4.1-4.2,3.7-6.8c-3.9,2-7.4,4.2-10.3,6.4C47.6,55,50.1,55.2,52.3,54.1z"/>
<path class="st1" d="M62.5,55.2c3.6-1.8,21-10.5,26.7-10.1l-1.6-8.9c0.1-6.8,0-11.4-0.1-14.4l-0.6-2c-0.2-0.7-0.6-0.7-0.7,0l-1.5,7
	c-0.1,0.5-0.1,1.1-0.1,1.7c-0.2-0.3-0.5-0.6-0.7-0.8l-3.8-2.2c-0.4-0.2-0.6,0.1-0.4,0.7l1.7,6c0.2,0.6,0.7,1.4,1.1,1.6l3,1.7
	c-0.5,0.1-0.9,0.6-0.8,1.2c0.1,0.6,0.6,1,1.2,1l0.7-0.1c-0.3,2-1.5,3.9-3.6,4.8c-3.1,1.5-6.8,0.4-8.3-2.6c-0.2-0.4-0.3-0.7-0.4-1.1
	l0.3-0.1c0.7-0.2,1-0.9,0.8-1.6c-0.2-0.6-0.8-1-1.4-0.9c0.8-0.9,1.2-2.2,0.8-3.4c-0.6-1.8-2.5-2.9-4.4-2.3c-1.8,0.6-2.9,2.5-2.3,4.4
	c0.4,1.2,1.4,2.1,2.6,2.4c-0.6,0.3-0.9,0.9-0.7,1.5c0.2,0.7,0.9,1,1.6,0.8l0.3-0.1c0.4,2.9-1.2,6-4.1,7.5c-3.6,1.8-7.9,0.5-9.6-3
	c0,0,0,0,0,0l0.3-0.1c0.6-0.3,0.9-1.1,0.6-1.7c-0.2-0.5-0.7-0.7-1.2-0.7l3.3-3.6c0.4-0.5,0.7-1.3,0.7-1.9l-0.5-5.7
	c-0.1-0.6-0.4-0.7-0.8-0.3l-3.9,4.2c-0.2,0.2-0.4,0.6-0.5,0.9c-0.2-0.5-0.5-0.9-0.8-1.2l-5-4.3c-0.5-0.5-1-0.3-0.9,0.5l0.3,6.6
	c0,0.4,0.2,1,0.5,1.4C50,38,49.6,37.9,49.2,38l-5.7,0.5c-0.6,0.1-0.7,0.4-0.3,0.8l4.2,3.9c0.5,0.4,1.3,0.7,1.9,0.7l5-0.4
	c-0.3,0.4-0.3,0.9-0.1,1.3c0.3,0.6,1.1,0.9,1.7,0.6l0.2-0.1c0,0,0,0,0,0c1.7,3.4,0.1,7.6-3.5,9.4c-2.9,1.4-6.1,0.9-8.2-1.1l0.3-0.2
	c0.6-0.4,0.7-1.2,0.3-1.8c-0.4-0.5-1.1-0.7-1.6-0.4c0.5-1.1,0.5-2.4-0.3-3.5c-1.1-1.6-3.3-2-4.9-0.9c-1.6,1.1-2,3.3-0.9,4.9
	c0.7,1.1,2,1.6,3.2,1.5c-0.5,0.4-0.6,1.1-0.2,1.7c0.4,0.6,1.2,0.7,1.8,0.3l0.2-0.1c0.2,0.2,0.3,0.5,0.4,0.8c1.4,2.9,0.1,6.6-3,8.1
	c-2,1-4.1,0.9-5.9-0.1l0.8-0.8c0.4-0.4,0.4-1.1,0-1.5c-0.4-0.4-1.1-0.4-1.5,0l-0.5,0.5l0.5-3.8c0.1-0.5-0.2-1.3-0.6-1.8L29,51.1
	c-0.4-0.5-0.8-0.6-0.8-0.1l-0.6,4.4c0,0.3,0,0.6,0.2,1c-0.4-0.4-1-0.8-1.4-1l-6.5-3.1c-0.7-0.3-0.9-0.1-0.5,0.5l1.2,1.7
	c2.3,1.9,5.9,4.9,11.4,9l0,0l6.1,6.7C41.1,65.5,58.9,56.9,62.5,55.2z"/>
<path class="st1" d="M67.7,46.5c2.2-1.1,3.6-3.3,3.7-5.5c-3.5,1-7.4,2.4-11.4,4.2C61.8,47.3,65,47.9,67.7,46.5z"/>
<path class="st1" d="M82.7,42c1-0.5,1.9-1.3,2.4-2.2c-2.3-0.6-5.6-0.5-9.6,0.2C76.9,42.4,80,43.3,82.7,42z"/>
<path class="st1" d="M64.9,58.8c-0.5,0.3-0.9,0.7-1.2,1.2c0.9-0.5,1.9-1,2.9-1.4C66.1,58.5,65.5,58.6,64.9,58.8z"/>
<path class="st1" d="M53.6,67.6c0-0.1,0-0.1-0.1-0.2c-0.6-1.2-1.9-1.8-3-1.3c-1,0.5-1.4,1.9-0.8,3.1c0.9-0.2,1.9-0.5,2.9-0.7
	C53,68.2,53.3,67.9,53.6,67.6z"/>
<path class="st1" d="M49.1,69.5c-0.8-1.6-0.3-3.5,1.1-4.2c1.4-0.7,3.2,0.1,4,1.7c0,0,0,0,0,0c1.1-1,2.2-2,3.4-2.9
	c0-0.7,0.4-1.3,1-1.6c0.4-0.2,0.9-0.2,1.3-0.1c0.9-0.6,1.8-1.2,2.8-1.7c0.1-1.1,0.8-2.1,1.8-2.6c1.1-0.5,2.3-0.4,3.2,0.2
	c1.2-0.5,2.5-0.9,3.8-1.3c0.2-0.4,0.4-0.7,0.8-0.9c0.6-0.3,1.3-0.2,1.9,0.2c1-0.2,2-0.4,3.1-0.6c-0.7-1.6-0.2-3.4,1.2-4.1
	c1.4-0.7,3.2,0.1,4,1.7c0.3,0.6,0.4,1.3,0.4,1.9c0.3,0,0.7,0,1,0c3.9,0,7.7,0.5,11.3,1.5c-0.5-1.1-1.1-2.2-1.5-3.2
	c-1.1,0.4-2.5-0.5-3.2-2c-0.8-1.6-0.6-3.3,0.5-3.9c0-0.1-0.1-0.2-0.1-0.2c-1.8-3.7-23.6,7.1-27.7,9.1C59,58.4,37.1,69,38.9,72.7
	c0,0,0.1,0.2,0.3,0.5c0.1-0.1,0.3-0.2,0.4-0.3c1.1-0.5,2.6,0.4,3.4,2s0.6,3.4-0.5,3.9c-0.1,0.1-0.3,0.1-0.4,0.1
	c0.6,1.1,1.2,2.3,1.8,3.6c-0.2-0.4,0.1-0.9,0.7-1.5c1.6-3.6,3.6-7,6-10C49.9,70.6,49.4,70.1,49.1,69.5z M85.7,50.7
	c0.6-0.3,1.4,0.2,1.9,1c0.4,0.9,0.3,1.8-0.3,2.1c-0.6,0.3-1.4-0.2-1.9-1C84.9,51.9,85.1,51,85.7,50.7z M47.1,72.9
	c-0.6,0.3-1.4-0.2-1.9-1c-0.4-0.9-0.3-1.8,0.3-2.1c0.6-0.3,1.4,0.2,1.9,1C47.9,71.6,47.7,72.6,47.1,72.9z"/>
<path class="st1" d="M81.7,53.4c-0.6-1.1-1.9-1.6-2.8-1.1c-1,0.5-1.4,1.9-0.8,3.2c0.4-0.1,0.9-0.1,1.3-0.2
	C80.2,54.7,80.9,54.1,81.7,53.4z"/>
<path class="st1" d="M73.7,58.9c0.6-0.3,0.8-1,0.5-1.5c-0.3-0.6-1-0.8-1.5-0.5c-0.6,0.3-0.8,1-0.5,1.5
	C72.5,58.9,73.1,59.1,73.7,58.9z"/>
<path class="st1" d="M59.1,73.4c-8.7,4.6-14.5,8.2-14.2,8.9c0.3,0.5,3.9-0.7,9.5-3C55.7,77.2,57.3,75.2,59.1,73.4
	C59,73.4,59.1,73.4,59.1,73.4z"/>
<path class="st1" d="M84,63.1c1,0,2,0.1,3,0.2c5-2.8,8.1-4.9,7.8-5.4c-0.3-0.7-6.6,1.6-15.3,5.6c1.4-0.2,2.8-0.3,4.3-0.3H84z"/>
<path class="st1" d="M60,65.3c0.6-0.3,0.8-1,0.5-1.5c-0.3-0.6-1-0.8-1.5-0.5s-0.8,1-0.5,1.5C58.8,65.3,59.4,65.6,60,65.3z"/>
<path class="st1" d="M53.6,67.6c-0.3,0.3-0.6,0.6-0.9,0.9c0.4-0.1,0.7-0.2,1.1-0.3C53.8,68,53.7,67.8,53.6,67.6z"/>
<path class="st1" d="M63.8,62.2c0.4,0.8,1.1,1.3,1.9,1.4c0.2-0.1,0.5-0.2,0.7-0.3c0.6-0.3,1.2-0.6,1.8-0.9c0.4-0.7,0.5-1.6,0.1-2.3
	c-0.3-0.7-0.9-1.1-1.6-1.3c-1,0.4-1.9,0.9-2.9,1.4C63.5,60.7,63.4,61.5,63.8,62.2z"/>
<path class="st1" d="M78.4,56c0.3-0.2,0.6-0.5,0.9-0.7c-0.4,0-0.9,0.1-1.3,0.2c0,0,0,0,0,0C78.1,55.7,78.3,55.9,78.4,56z"/>
<path class="st1" d="M62.7,70.3c3.7-2.8,7.8-4.8,12.2-6c7.9-3.8,19.6-9.1,20.5-7.2c-0.1-0.2-0.2-0.4-0.3-0.6
	c-3.6-1-7.4-1.5-11.3-1.5c-0.3,0-0.7,0-1,0c-0.1,1-0.6,1.8-1.5,2.3c-1.4,0.7-3.2-0.1-4-1.7c0,0,0-0.1,0-0.1c-1,0.2-2,0.4-3.1,0.6
	c0.3,0.2,0.5,0.4,0.7,0.7c0.5,0.9,0.1,2.1-0.9,2.5c-0.9,0.5-2.1,0.1-2.5-0.9c-0.3-0.6-0.2-1.2,0-1.7c-1.3,0.4-2.5,0.8-3.8,1.3
	c0.5,0.3,0.9,0.7,1.2,1.3c0.8,1.6,0.1,3.6-1.5,4.4c-1.6,0.8-3.6,0.1-4.4-1.5c-0.3-0.6-0.4-1.2-0.3-1.8c-0.9,0.5-1.9,1.1-2.8,1.7
	c0.5,0.1,1,0.5,1.2,1c0.5,0.9,0.1,2.1-0.9,2.5c-0.9,0.5-2.1,0.1-2.5-0.9c-0.2-0.3-0.2-0.6-0.2-1c-1.2,0.9-2.3,1.9-3.4,2.9
	c0.8,1.6,0.3,3.5-1.1,4.2c-0.8,0.4-1.8,0.3-2.6-0.2c-2.4,3-4.5,6.4-6,10C47.1,78.2,56.3,73.4,62.7,70.3z"/>
<path class="st1" d="M292.3,65.7c0.3-1.2-0.2-2.4-1.2-2.8c-1.1-0.4-2.3,0.3-2.8,1.6c0,0.1-0.1,0.2-0.1,0.3c0.2,0.1,0.3,0.3,0.4,0.4
	C290,65.4,291.2,65.6,292.3,65.7z"/>
<path class="st1" d="M256,42.2c2.8,1,5.8-0.2,6.9-2.8c-4-0.3-7.3,0-9.5,0.8C254.1,41.2,255,41.8,256,42.2z"/>
<path class="st1" d="M271.5,45.1c2.8,1,5.9,0.1,7.5-2.1c-4.2-1.4-8.2-2.4-11.8-2.9C267.5,42.2,269.2,44.2,271.5,45.1z"/>
<path class="st1" d="M258.2,53.4c0.6-1.7,2.3-2.6,3.8-2.1c1.4,0.5,2.1,2.2,1.6,3.8c1.6,0.1,3.1,0.3,4.6,0.5c0.5-0.3,1.1-0.4,1.7-0.2
	c0.4,0.1,0.7,0.4,0.9,0.8c1.1,0.3,2.2,0.6,3.3,0.9c0.9-0.6,2-0.9,3.1-0.5c1.1,0.4,1.9,1.4,2.1,2.5c1.1,0.5,2.2,1.1,3.3,1.8
	c0.4-0.2,1-0.2,1.4-0.1c0.8,0.3,1.2,1,1.2,1.8c0.8,0.6,1.6,1.2,2.4,1.8c0-0.1,0-0.1,0.1-0.2c0.6-1.7,2.3-2.6,3.8-2.1
	c1.5,0.5,2.2,2.3,1.6,4c-0.3,0.8-0.8,1.4-1.5,1.8c2.5,2.6,4.8,5.5,6.6,8.6c0.8,0.6,1.2,1.1,1,1.6c0.5-1.3,1-2.7,1.4-3.9
	c-1-0.5-1.4-2.1-0.8-3.7c0.6-1.7,2-2.7,3.1-2.4c0-0.1,0.1-0.2,0.1-0.2c1.4-3.9-21.5-12-25.8-13.5c-4.3-1.6-27.1-9.9-28.5-6
	c0,0-0.1,0.2-0.2,0.5c0.2,0,0.4,0,0.5,0.1c1.1,0.4,1.6,2.1,0.9,3.8c-0.6,1.7-2,2.7-3.1,2.3c-0.1-0.1-0.3-0.1-0.4-0.2
	c-0.4,1-0.7,2.1-1.1,3.2c4-1.6,8.2-2.6,12.6-2.9C257.9,54.6,258,54,258.2,53.4z M295.3,67.9c0.3-0.9,1.1-1.4,1.7-1.2
	c0.6,0.2,0.9,1.1,0.6,2c-0.3,0.9-1.1,1.4-1.7,1.2C295.3,69.7,295,68.7,295.3,67.9z M256.1,53.2c-0.3,0.9-1.1,1.4-1.7,1.2
	c-0.6-0.2-0.9-1.1-0.6-2c0.3-0.9,1.1-1.4,1.7-1.2C256.1,51.4,256.4,52.3,256.1,53.2z"/>
<path class="st1" d="M287.6,50.8c2.3,0.8,4.9,0.3,6.6-1.2c-3.2-1.9-6.9-3.6-11-5.2C283,47.1,284.7,49.8,287.6,50.8z"/>
<path class="st1" d="M297.7,52c-0.8,2.6,0.7,5.5,3.5,6.5c1.1,0.4,2.2,0.4,3.3,0.2C303.4,56.6,301,54.3,297.7,52z"/>
<path class="st1" d="M276.8,57.4c-0.6-0.2-1.2-0.2-1.7,0c1,0.4,2.1,0.8,3.1,1.2C277.9,58.1,277.4,57.6,276.8,57.4z"/>
<path class="st1" d="M319.7,45.5l-6.1,3.8c-0.4,0.3-0.9,0.7-1.3,1.2c0.1-0.4,0.1-0.8,0.1-1l-1.1-4.3c-0.1-0.5-0.5-0.4-0.8,0.2
	l-3.1,5.5c-0.3,0.6-0.5,1.4-0.4,1.9l0.8,3.3c-0.5-0.3-1-0.2-1.4,0.2c-0.4,0.5-0.3,1.1,0.1,1.5l0.5,0.4c-1.6,1.2-3.8,1.6-6,0.8
	c-3.3-1.2-5-4.6-3.9-7.7c0.1-0.4,0.3-0.7,0.5-1.1l0.3,0.2c0.6,0.3,1.4,0.1,1.7-0.5c0.3-0.6,0.1-1.3-0.4-1.6c1.2,0,2.4-0.7,3-1.8
	c0.9-1.7,0.3-3.8-1.4-4.7c-1.7-0.9-3.8-0.3-4.7,1.4c-0.6,1.2-0.5,2.5,0.1,3.5c-0.6-0.2-1.3,0-1.6,0.6c-0.3,0.6-0.1,1.4,0.5,1.7
	l0.3,0.2c-1.8,2.4-5.1,3.4-8.2,2.2c-3.8-1.4-5.8-5.4-4.5-8.9c0,0,0,0,0-0.1l0.3,0.1c0.7,0.2,1.4-0.1,1.6-0.8c0.2-0.5,0-1-0.3-1.3
	l4.9-0.1c0.6,0,1.4-0.4,1.8-0.9l3.8-4.3c0.4-0.5,0.2-0.8-0.4-0.8l-5.7,0.2c-0.3,0-0.7,0.1-1,0.3c0.2-0.5,0.3-1,0.3-1.4l-0.4-6.6
	c0-0.7-0.5-0.9-1-0.3l-4.5,4.8c-0.3,0.3-0.6,0.8-0.7,1.3c-0.2-0.4-0.4-0.7-0.7-1l-4.3-3.8c-0.5-0.4-0.8-0.2-0.8,0.4l0.2,5.7
	c0,0.6,0.4,1.4,0.9,1.8l3.8,3.3c-0.5,0.1-0.9,0.4-1,0.8c-0.2,0.7,0.1,1.4,0.8,1.6l0.3,0.1c0,0,0,0,0,0.1c-1.3,3.6-5.4,5.4-9.2,4
	c-3-1.1-4.9-3.8-4.9-6.7l0.4,0.1c0.7,0.1,1.4-0.3,1.5-1c0.1-0.6-0.2-1.3-0.8-1.4c1.2-0.4,2.1-1.4,2.3-2.6c0.4-1.9-0.9-3.7-2.7-4.1
	c-1.9-0.4-3.7,0.9-4.1,2.7c-0.3,1.3,0.2,2.5,1.2,3.3c-0.6,0-1.2,0.4-1.3,1c-0.1,0.7,0.3,1.4,1,1.5l0.3,0c-0.1,0.3-0.1,0.6-0.2,0.8
	c-1.1,3.1-4.7,4.6-7.9,3.5c-2.1-0.7-3.5-2.4-4-4.3l1.1,0c0.6,0,1.1-0.5,1.1-1.1c0-0.6-0.5-1.1-1.1-1.1l-0.7,0l3.1-2.3
	c0.4-0.3,0.8-1,0.9-1.7l1.1-6.2c0.1-0.7-0.1-1-0.5-0.7l-3.6,2.6c-0.2,0.2-0.4,0.5-0.6,0.8c0-0.6-0.1-1.3-0.2-1.7l-2.3-6.8
	c-0.2-0.7-0.6-0.7-0.7,0l-0.4,2.1c0.2,3,0.6,7.6,1.5,14.4l0,0l-0.6,9.1c5.4-1.1,24,5.7,27.8,7.1c3.8,1.3,22.1,7.8,25.8,12.1l5.3-7.3
	c5-4.6,8.2-7.9,10.3-10.1l1-1.9C320.6,45.3,320.3,45.1,319.7,45.5z"/>
<path class="st1" d="M261.6,52.1c-1.1-0.4-2.3,0.3-2.8,1.6c0.7,0.4,1.4,0.9,2.1,1.3c0.6,0,1.2,0,1.8,0
	C263.2,53.8,262.7,52.5,261.6,52.1z"/>
<path class="st1" d="M261.2,63.1c0.1,0,0.2,0,0.3,0c-8.9-2.9-15.1-4.4-15.4-3.7c-0.2,0.5,3,2.2,8.1,4.4c2.2-0.5,4.5-0.7,6.8-0.7
	L261.2,63.1z"/>
<path class="st1" d="M288.2,76.1c6,1.8,9.9,2.6,10.1,2.1c0.3-0.7-6.2-3.8-15.5-7.4C284.8,72.3,286.6,74.1,288.2,76.1z"/>
<path class="st1" d="M282.2,62.3c-0.2,0.6,0.1,1.2,0.7,1.4c0.6,0.2,1.2-0.1,1.4-0.7c0.2-0.6-0.1-1.2-0.7-1.4
	C283.1,61.4,282.4,61.7,282.2,62.3z"/>
<path class="st1" d="M266.3,63.5c4.6,0.7,8.9,2.3,12.7,4.6c6.6,2.4,16.1,6,19.3,8.5c-1.8-3.2-4.1-6.1-6.6-8.6
	c-0.7,0.4-1.5,0.6-2.3,0.3c-1.4-0.5-2.1-2.2-1.6-3.8c-0.8-0.6-1.6-1.2-2.4-1.8c0,0.2,0,0.4-0.1,0.7c-0.4,1-1.4,1.5-2.4,1.1
	c-1-0.4-1.5-1.4-1.1-2.4c0.2-0.5,0.5-0.9,1-1.1c-1.1-0.6-2.2-1.2-3.3-1.8c0.1,0.5,0.1,1.1-0.1,1.7c-0.6,1.7-2.5,2.6-4.2,2
	c-1.7-0.6-2.6-2.5-2-4.2c0.2-0.6,0.6-1.1,1.1-1.5c-1.1-0.3-2.2-0.6-3.3-0.9c0.3,0.5,0.4,1.1,0.2,1.7c-0.4,1-1.4,1.5-2.4,1.1
	c-1-0.4-1.5-1.4-1.1-2.4c0.1-0.4,0.4-0.7,0.8-0.9c-1.5-0.3-3-0.4-4.6-0.5c0,0.1,0,0.1-0.1,0.2c-0.6,1.7-2.3,2.6-3.8,2.1
	c-1-0.3-1.6-1.2-1.8-2.3c-4.4,0.3-8.7,1.3-12.6,2.9c-0.1,0.2-0.1,0.4-0.2,0.6C245.9,56.6,258,60.6,266.3,63.5z"/>
<path class="st1" d="M273.6,58.9c-0.3,0.8-0.1,1.7,0.4,2.3c0.2,0.1,0.5,0.2,0.7,0.3c0.6,0.2,1.3,0.4,1.9,0.7
	c0.8-0.2,1.4-0.8,1.7-1.6c0.2-0.7,0.2-1.4-0.1-2c-1-0.4-2-0.8-3.1-1.2C274.4,57.7,273.9,58.2,273.6,58.9z"/>
<path class="st1" d="M262.7,55.2C262.7,55.2,262.7,55.1,262.7,55.2c-0.6-0.1-1.2-0.1-1.8-0.1c0.5,0.3,0.9,0.6,1.4,0.9
	C262.5,55.7,262.6,55.5,262.7,55.2z"/>
<path class="st1" d="M288.7,65.2c-0.1-0.1-0.3-0.3-0.4-0.4c0,0.1-0.1,0.2-0.1,0.3C288.4,65.2,288.5,65.2,288.7,65.2z"/>
<path class="st1" d="M268.1,56.9c-0.2,0.6,0.1,1.2,0.7,1.4c0.6,0.2,1.2-0.1,1.4-0.7c0.2-0.6-0.1-1.2-0.7-1.4
	C268.9,56,268.3,56.3,268.1,56.9z"/>
</svg>
