<?xml version="1.0" encoding="utf-8"?>
<!-- Generator: Adobe Illustrator 24.1.3, SVG Export Plug-In . SVG Version: 6.00 Build 0)  -->
<svg version="1.1" id="Layer_1" xmlns="http://www.w3.org/2000/svg" xmlns:xlink="http://www.w3.org/1999/xlink" x="0px" y="0px"
	 viewBox="0 0 338.2 497.7" style="enable-background:new 0 0 338.2 497.7;" xml:space="preserve">
<g>
	<path d="M163.5,494.6c-10.9,0-21.8,0-32.8,0c-0.5-0.2-0.9-0.4-1.4-0.5c-5.3-1.9-8.4-5.6-9.1-11.2c-0.3-2.3-0.2-4.6-0.2-6.9
		c-0.1-40.6-0.1-81.2-0.1-121.8c0-58.4,0-116.7,0-175.1c0-0.5,0.1-1,0-1.4c-0.2-0.5-0.7-0.9-1.1-1.4c-0.4,0.5-0.8,0.9-1.1,1.4
		c-0.1,0.2,0,0.5,0,0.8c0,20.1,0,40.3,0,60.4c0,32.4,0,64.8,0,97.2c0,0.6,0,1.2-0.1,1.9c-0.1,1.3-0.9,2-2.2,2.1
		c-11.4,0.6-20.7-3.4-27.5-12.6c-4.3-5.8-6.1-12.4-6.1-19.5c0.1-22.8,0.1-45.5,0-68.3c0-25-0.1-50.1-0.1-75.1c0-9.4,1.7-18.5,6-26.8
		c11-21.4,28.6-33.3,52.8-34.1c19-0.6,38-0.2,57-0.1c11.3,0.1,21.8,3.2,31.2,9.4c17.9,11.9,27.3,28.6,27.9,50.2
		c0.2,5.6,0,11.1,0,16.7c0,42.7,0,85.4,0,128.1c0,4.9-0.8,9.7-3.1,14c-6.2,11.8-16.2,17.5-29.4,17.6c-2.9,0-3.4-0.6-3.4-3.4
		c0-52.4,0-104.9,0-157.3c0-0.9,0.4-2.3-1-2.3c-1.6-0.1-1,1.4-1,2.2c-0.1,59.5-0.2,119.1-0.3,178.6c0,19.3,0,38.5,0,57.8
		c0,22,0,44,0,66c0,4.7-1.8,8.4-5.6,11.1c-1.5,1-3.3,1.6-4.9,2.4c-11,0-22.1,0-33.1,0c-2.3-1.3-2.9-3.4-2.9-6c0.1-43,0-86,0-129
		c0-0.6,0-1.3-0.1-1.8c-0.4-1.3-1.3-2-2.6-2c-1.2,0-2.3,1.1-2.4,2.4c-0.1,0.6,0,1.2,0,1.9c0,43,0,86,0,129
		C166.6,491.6,165.8,493.5,163.5,494.6z"/>
	<path d="M0,166.6c0.4-2.7,0.7-5.5,1.2-8.2c4.3-22.2,22.2-39.9,44.6-44c3.8-0.7,7.7-1,11.5-1c16-0.1,32,0,48.1,0
		c0.4,0,0.7,0,1.4,0.1c-1.3,1-2.3,1.8-3.4,2.7c-12.3,10.2-19.8,23.2-22.1,39.1c-0.4,2.5-0.6,5.1-0.6,7.7c0,49-0.1,98,0,147
		c0,15.7,12.3,29.3,27.9,31.1c2.2,0.3,4.4,0.2,6.6,0.3c1.5,0,2.6-0.8,3.5-2c0,2.9,0,5.7,0,8.6c0.1,42.2,0.2,84.5,0.2,126.7
		c0,2.9,0,3-3,3.1c-5.6,0.1-11.1,0.1-16.7,0.1c-3.4,0-6.8,0-10.2,0c-3.7,0-5.1-1.4-5.1-5.1c0-30.7,0-61.3,0-92c0-9.6,0-19.2,0-28.7
		c0-0.5,0-1-0.1-1.5c-0.3-1.3-1.1-2-2.4-1.9c-1.4,0.1-2.1,0.9-2.3,2.3c-0.1,0.6,0,1.1,0,1.7c0,40.1,0,80.2,0,120.2
		c0,1-0.2,2.2-0.6,3.1c-0.7,1.4-2,2-3.6,2c-9.1,0-18.2,0.1-27.4-0.1c-6.6-0.1-11.7-5.7-11.7-12.5c0-20.9,0-41.8,0-62.8
		c0-17.4,0-34.7,0-52.1c-0.1-55.6-0.2-111.3-0.2-166.9c0-0.4,0.1-0.9-0.1-1.2c-0.2-0.4-0.6-0.8-1-0.9c-0.3-0.1-0.8,0.4-0.9,0.8
		c-0.2,0.6-0.2,1.2-0.2,1.8c0,48.7,0,97.5,0,146.2c0,3.3-0.4,3.7-3.7,3.7c-15.1,0-26.7-9.8-29.3-24.8c-0.1-0.8-0.3-1.6-0.4-2.4
		C0,260,0,213.3,0,166.6z"/>
	<path d="M338.2,307.9c-0.4,1.6-0.7,3.3-1.2,4.9c-4,11.5-12.1,18.3-24.2,20.2c-1.8,0.3-3.6,0.3-5.4,0.3c-1.9,0-2.6-0.7-2.6-2.6
		c0-0.3,0-0.6,0-0.9c0-48.7,0-97.4,0-146c0-0.9,0.4-2.3-1-2.3c-1.4,0-1,1.4-1,2.3c0,54.5,0,109,0,163.5c0,39.2,0,78.4-0.1,117.6
		c0,7.5-5.2,12.8-12.6,12.9c-8.6,0.1-17.1,0-25.7,0c-3.7,0-5-1.4-5-5.1c0-39.9,0-79.8,0-119.8c0-0.7,0-1.3,0-2
		c-0.1-1.5-1.1-2.5-2.5-2.5c-1.3,0-2.3,1.1-2.4,2.5c0,0.5,0,0.9,0,1.4c0,40.1,0,80.2,0,120.2c0,3.7-1.4,5.1-5.1,5.1
		c-8.6,0-17.1,0-25.7,0c-4.2,0-4.2,0-4.2-4.2c0-37.9,0-75.8,0-113.7c0-6.5,0.1-13,0.1-19.5c0-0.4,0-0.8,0.1-1.4c2.4,3,5.6,2,8.3,1.7
		c11-1.1,19.6-6.5,25.4-16c3-5,4.4-10.5,4.4-16.3c0-38.3,0-76.6,0-114.8c0-9.6,0.1-19.3,0-28.9c-0.2-20.8-8.6-37.6-25.1-50.2
		c-0.3-0.2-0.5-0.4-1-0.8c0.5-0.1,0.7-0.1,0.9-0.1c17,0,34-0.2,51,0.1c15.4,0.2,28.5,6.2,39.1,17.3c8.8,9.1,13.9,20.1,15.2,32.7
		c0,0.2,0.2,0.5,0.3,0.7C338.2,212.1,338.2,260,338.2,307.9z"/>
	<path d="M171.9,0c2.5,0.4,5,0.7,7.4,1.3c18.7,4.4,32.4,19.4,35.2,38.4c3.5,23.7-13.2,46.7-36.7,51c-24.7,4.6-48.6-11.4-53.3-35.8
		C121,36.3,127,20.9,141.9,9.2c7-5.5,15-8.3,23.9-9c0.3,0,0.6-0.2,0.9-0.3C168.4,0,170.1,0,171.9,0z"/>
	<path d="M81.6,102.1c-22.3,0.3-42.3-17.9-42.6-42c-0.2-23.9,18.8-43,42.5-43.1c23.5-0.1,42.5,19.2,42.6,43
		C124.1,83.1,104.9,102.1,81.6,102.1z"/>
	<path d="M256.8,102.1c-23.3,0.1-42.3-19-42.5-42.6c-0.2-23.1,19-42.3,42.3-42.5c23.4-0.2,42.6,19,42.8,42.5
		C299.5,83.1,280.6,102,256.8,102.1z"/>
</g>
</svg>
