<?xml version="1.0" encoding="utf-8"?>
<!-- Generator: Adobe Illustrator 24.1.3, SVG Export Plug-In . SVG Version: 6.00 Build 0)  -->
<svg version="1.1" id="Layer_1" xmlns="http://www.w3.org/2000/svg" xmlns:xlink="http://www.w3.org/1999/xlink" x="0px" y="0px"
	 viewBox="0 0 343.4 455.9" style="enable-background:new 0 0 343.4 455.9;" xml:space="preserve">
<style type="text/css">
	.st0{fill:none;stroke:#000000;stroke-width:3;stroke-miterlimit:10;}
</style>
<path class="st0" d="M166.1,452.7c-10.9,0-21.8,0-32.8,0c-0.5-0.2-0.9-0.3-1.4-0.5c-5.3-1.7-8.4-4.9-9.1-9.9c-0.3-2-0.2-4.1-0.2-6.2
	c-0.1-36-0.1-72-0.1-108c0-51.8,0-103.6,0-155.3c0-0.4,0.1-0.9,0-1.2c-0.2-0.5-0.7-0.8-1.1-1.2c-0.4,0.4-0.8,0.8-1.1,1.2
	c-0.1,0.2,0,0.4,0,0.7c0,17.9,0,35.7,0,53.6c0,28.7,0,57.5,0,86.2c0,0.5,0,1.1-0.1,1.6c-0.1,1.2-0.9,1.8-2.2,1.9
	c-11.4,0.5-20.7-3-27.5-11.2c-4.3-5.1-6.1-11-6.1-17.3c0.1-20.2,0.1-40.4,0-60.6c0-22.2-0.1-44.4-0.1-66.6c0-8.3,1.7-16.4,6-23.8
	c11-19,28.6-29.5,52.8-30.2c19-0.6,38-0.2,57-0.1c11.3,0,21.8,2.8,31.2,8.4c17.9,10.5,27.3,25.4,27.9,44.5c0.2,4.9,0,9.9,0,14.8
	c0,37.9,0,75.8,0,113.7c0,4.4-0.8,8.6-3.1,12.4c-6.2,10.5-16.2,15.6-29.4,15.7c-2.9,0-3.4-0.5-3.4-3.1c0-46.5,0-93,0-139.6
	c0-0.8,0.4-2-1-2.1c-1.6-0.1-1,1.2-1,2c-0.1,52.8-0.2,105.6-0.3,158.5c0,17.1,0,34.2,0,51.3c0,19.5,0,39,0,58.5
	c0,4.1-1.8,7.5-5.6,9.8c-1.5,0.9-3.3,1.4-4.9,2.1c-11,0-22.1,0-33.1,0c-2.3-1.2-2.9-3-2.9-5.3c0.1-38.2,0-76.3,0-114.5
	c0-0.5,0-1.1-0.1-1.6c-0.4-1.1-1.3-1.8-2.6-1.7c-1.2,0-2.3,1-2.4,2.1c-0.1,0.5,0,1.1,0,1.6c0,38.2,0,76.3,0,114.5
	C169.2,450,168.4,451.7,166.1,452.7z"/>
<path class="st0" d="M2.6,161.7c0.4-2.4,0.7-4.9,1.2-7.3c4.3-19.7,22.2-35.4,44.6-39c3.8-0.6,7.7-0.9,11.5-0.9c16-0.1,32,0,48.1,0
	c0.4,0,0.7,0,1.4,0.1c-1.3,0.9-2.3,1.6-3.4,2.4c-12.3,9.1-19.8,20.6-22.1,34.7c-0.4,2.3-0.6,4.5-0.6,6.8c0,43.5-0.1,86.9,0,130.4
	c0,13.9,12.3,26,27.9,27.6c2.2,0.2,4.4,0.2,6.6,0.2c1.5,0,2.6-0.7,3.5-1.8c0,2.5,0,5.1,0,7.6c0.1,37.5,0.2,74.9,0.2,112.4
	c0,2.6,0,2.7-3,2.7c-5.6,0.1-11.1,0-16.7,0.1c-3.4,0-6.8,0-10.2,0c-3.7,0-5.1-1.2-5.1-4.5c0-27.2,0-54.4,0-81.6c0-8.5,0-17,0-25.5
	c0-0.5,0-0.9-0.1-1.4c-0.3-1.1-1.1-1.8-2.4-1.7c-1.4,0.1-2.1,0.8-2.3,2c-0.1,0.5,0,1,0,1.5c0,35.6,0,71.1,0,106.7
	c0,0.9-0.2,1.9-0.6,2.8c-0.7,1.2-2,1.8-3.6,1.8c-9.1,0-18.2,0.1-27.4,0c-6.6-0.1-11.7-5-11.7-11.1c0-18.6,0-37.1,0-55.7
	c0-15.4,0-30.8,0-46.2c-0.1-49.4-0.2-98.7-0.2-148.1c0-0.4,0.1-0.8-0.1-1.1c-0.2-0.3-0.6-0.7-1-0.8c-0.3,0-0.8,0.4-0.9,0.7
	c-0.2,0.5-0.2,1.1-0.2,1.6c0,43.2,0,86.5,0,129.7c0,2.9-0.4,3.3-3.7,3.3c-15.1,0-26.7-8.7-29.3-22c-0.1-0.7-0.3-1.4-0.4-2.1
	C2.6,244.5,2.6,203.1,2.6,161.7z"/>
<path class="st0" d="M340.8,287.1c-0.4,1.4-0.7,2.9-1.2,4.3c-4,10.2-12.1,16.2-24.2,17.9c-1.8,0.2-3.6,0.2-5.4,0.3
	c-1.9,0-2.6-0.6-2.6-2.3c0-0.3,0-0.5,0-0.8c0-43.2,0-86.4,0-129.6c0-0.8,0.4-2.1-1-2.1c-1.4,0-1,1.3-1,2.1c0,48.4,0,96.7,0,145.1
	c0,34.8,0,69.6-0.1,104.3c0,6.6-5.2,11.4-12.6,11.4c-8.6,0-17.1,0-25.7,0c-3.7,0-5-1.2-5-4.5c0-35.4,0-70.8,0-106.3
	c0-0.6,0-1.2,0-1.8c-0.1-1.3-1.1-2.2-2.5-2.2c-1.3,0-2.3,0.9-2.4,2.2c0,0.4,0,0.8,0,1.2c0,35.6,0,71.1,0,106.7
	c0,3.3-1.4,4.6-5.1,4.6c-8.6,0-17.1,0-25.7,0c-4.2,0-4.2,0-4.2-3.7c0-33.6,0-67.3,0-100.9c0-5.8,0.1-11.5,0.1-17.3
	c0-0.3,0-0.7,0.1-1.3c2.4,2.7,5.6,1.8,8.3,1.5c11-1,19.6-5.7,25.4-14.2c3-4.4,4.4-9.3,4.4-14.5c0-34,0-67.9,0-101.9
	c0-8.5,0.1-17.1,0-25.6c-0.2-18.5-8.6-33.3-25.1-44.6c-0.3-0.2-0.5-0.4-1-0.7c0.5-0.1,0.7-0.1,0.9-0.1c17,0,34-0.2,51,0.1
	c15.4,0.2,28.5,5.5,39.1,15.4c8.8,8.1,13.9,17.8,15.2,29c0,0.2,0.2,0.4,0.3,0.6C340.8,202,340.8,244.5,340.8,287.1z"/>
<path class="st0" d="M174.5,2.3c2.5,0.4,5,0.7,7.4,1.3c18.7,4.4,32.4,19.4,35.2,38.4c3.5,23.7-13.2,46.7-36.7,51
	c-24.7,4.6-48.6-11.4-53.3-35.8c-3.5-18.5,2.5-33.9,17.3-45.6c7-5.5,15-8.3,23.9-9c0.3,0,0.6-0.2,0.9-0.3
	C171,2.3,172.7,2.3,174.5,2.3z"/>
<path class="st0" d="M84.2,104.4c-22.3,0.3-42.3-17.9-42.6-42c-0.2-23.9,18.8-43,42.5-43.1c23.5-0.1,42.5,19.2,42.6,43
	C126.7,85.4,107.5,104.4,84.2,104.4z"/>
<path class="st0" d="M259.4,104.4c-23.3,0.1-42.3-19-42.5-42.6c-0.2-23.1,19-42.3,42.3-42.5c23.4-0.2,42.6,19,42.8,42.5
	C302,85.3,283.2,104.2,259.4,104.4z"/>
</svg>
