<?xml version="1.0" encoding="utf-8"?>
<!-- Generator: Adobe Illustrator 24.1.3, SVG Export Plug-In . SVG Version: 6.00 Build 0)  -->
<svg version="1.1" id="Layer_1" xmlns="http://www.w3.org/2000/svg" xmlns:xlink="http://www.w3.org/1999/xlink" x="0px" y="0px"
	 viewBox="0 0 1371 131" style="enable-background:new 0 0 1371 131;" xml:space="preserve">
<style type="text/css">
	.st0{opacity:0.12;}
	.st1{fill-rule:evenodd;clip-rule:evenodd;fill:url(#SVGID_1_);}
	.st2{fill:url(#SVGID_2_);fill-opacity:0.6;}
</style>
<g class="st0">
	
		<linearGradient id="SVGID_1_" gradientUnits="userSpaceOnUse" x1="1391" y1="66.377" x2="52.5002" y2="66.377" gradientTransform="matrix(1 0 0 -1 0 132)">
		<stop  offset="0" style="stop-color:#FFFFFF;stop-opacity:0"/>
		<stop  offset="0.4037" style="stop-color:#FFFFFF;stop-opacity:0.5056"/>
		<stop  offset="0.4792" style="stop-color:#FFFFFF;stop-opacity:0.6"/>
		<stop  offset="1" style="stop-color:#FFFFFF;stop-opacity:0"/>
	</linearGradient>
	<path class="st1" d="M1283.3,61.2l87.2,46.6l-0.9,1.8l-90.5-48.4h-191.9l84.3,64.6l-1.2,1.6l-86.4-66.2H922.6l52.7,67h393.1v3H2.5
		v-3h190l87-67H75.3L1.5,99l-0.9-1.8l70.4-36H2.5v-2h72.4l111.5-57H2.5v-2h1004.7l0.1-0.2l0.2,0.2h161.2l0.1-0.2l0.5,0.2h199.2v2
		H1173l106.6,57h88.9v2H1283.3z M1275.3,59.2l-106.6-57h-158.6l74.4,57H1275.3z M1081.2,59.2l-74.4-57H876.2l44.9,57H1081.2z
		 M918.5,59.2L873.8,2.4l0.2-0.2h-96.6l20.4,57H918.5z M795.7,59.2l-20.4-57H603.8l0.1,0.1l-27.2,56.9H795.7z M796.4,61.2l24,67
		H543.7l32-67H796.4z M822.5,128.2l-24-67h121.6l52.7,67H822.5z M188,3.7l-0.7-1.4h168.9l-74,57H79.2L188,3.7z M357.6,3.6l-1-1.3
		h129.4l-45,57H285.4L357.6,3.6z M488.3,2.5L488,2.2h113.8l-27.2,57h-131L488.3,2.5z M441.9,61.2h131.6l-31.9,66.8l0.4,0.2H389.1
		L441.9,61.2z M439.4,61.2l-52.9,67H195.8l87-67H439.4z"/>
</g>
<linearGradient id="SVGID_2_" gradientUnits="userSpaceOnUse" x1="686.4211" y1="76.7969" x2="686.5711" y2="67.0904" gradientTransform="matrix(1 0 0 -1 0 132)">
	<stop  offset="0" style="stop-color:#191A1B"/>
	<stop  offset="0.3125" style="stop-color:#0FCDA1"/>
	<stop  offset="0.6979" style="stop-color:#0FCDA1"/>
	<stop  offset="1" style="stop-color:#191A1B"/>
</linearGradient>
<rect x="221" y="59.7" class="st2" width="931" height="1"/>
</svg>
